<mxfile host="Electron" modified="2023-05-19T19:53:29.141Z" agent="Mozilla/5.0 (Windows NT 10.0; Win64; x64) AppleWebKit/537.36 (KHTML, like Gecko) draw.io/21.2.8 Chrome/112.0.5615.165 Electron/24.2.0 Safari/537.36" etag="QdWKkh7HNvEJwwiGgsSN" version="21.2.8" type="device">
  <diagram name="Страница 1" id="Nefw5uFeIuM1zj87c_66">
    <mxGraphModel dx="864" dy="526" grid="1" gridSize="8" guides="1" tooltips="1" connect="1" arrows="1" fold="1" page="1" pageScale="1" pageWidth="827" pageHeight="1169" math="0" shadow="0">
      <root>
        <mxCell id="0" />
        <mxCell id="1" parent="0" />
        <mxCell id="eR8I4bMejk7j6OaKvSnD-6" value="Поиск" style="rounded=0;whiteSpace=wrap;html=1;" parent="1" vertex="1">
          <mxGeometry x="440" y="216" width="56" height="24" as="geometry" />
        </mxCell>
        <mxCell id="eR8I4bMejk7j6OaKvSnD-7" value="Добавление" style="rounded=0;whiteSpace=wrap;html=1;" parent="1" vertex="1">
          <mxGeometry x="152" y="216" width="80" height="24" as="geometry" />
        </mxCell>
        <mxCell id="eR8I4bMejk7j6OaKvSnD-9" value="Изменение" style="rounded=0;whiteSpace=wrap;html=1;" parent="1" vertex="1">
          <mxGeometry x="248" y="216" width="80" height="24" as="geometry" />
        </mxCell>
        <mxCell id="eR8I4bMejk7j6OaKvSnD-10" value="Удаление" style="rounded=0;whiteSpace=wrap;html=1;" parent="1" vertex="1">
          <mxGeometry x="344" y="216" width="80" height="24" as="geometry" />
        </mxCell>
        <mxCell id="eR8I4bMejk7j6OaKvSnD-11" value="Печать" style="rounded=0;whiteSpace=wrap;html=1;" parent="1" vertex="1">
          <mxGeometry x="512" y="216" width="80" height="24" as="geometry" />
        </mxCell>
        <mxCell id="eR8I4bMejk7j6OaKvSnD-13" value="" style="endArrow=none;html=1;rounded=0;entryX=0.5;entryY=1;entryDx=0;entryDy=0;" parent="1" target="eR8I4bMejk7j6OaKvSnD-7" edge="1">
          <mxGeometry width="50" height="50" relative="1" as="geometry">
            <mxPoint x="192" y="576" as="sourcePoint" />
            <mxPoint x="330" y="336" as="targetPoint" />
          </mxGeometry>
        </mxCell>
        <mxCell id="eR8I4bMejk7j6OaKvSnD-14" value="" style="endArrow=none;html=1;rounded=0;entryX=0.5;entryY=1;entryDx=0;entryDy=0;" parent="1" edge="1">
          <mxGeometry width="50" height="50" relative="1" as="geometry">
            <mxPoint x="288" y="576" as="sourcePoint" />
            <mxPoint x="287.58" y="240" as="targetPoint" />
          </mxGeometry>
        </mxCell>
        <mxCell id="eR8I4bMejk7j6OaKvSnD-15" value="" style="endArrow=none;html=1;rounded=0;entryX=0.5;entryY=1;entryDx=0;entryDy=0;" parent="1" edge="1">
          <mxGeometry width="50" height="50" relative="1" as="geometry">
            <mxPoint x="384" y="576" as="sourcePoint" />
            <mxPoint x="383.58000000000004" y="240" as="targetPoint" />
          </mxGeometry>
        </mxCell>
        <mxCell id="eR8I4bMejk7j6OaKvSnD-16" value="" style="endArrow=none;html=1;rounded=0;entryX=0.5;entryY=1;entryDx=0;entryDy=0;" parent="1" edge="1">
          <mxGeometry width="50" height="50" relative="1" as="geometry">
            <mxPoint x="468" y="576" as="sourcePoint" />
            <mxPoint x="467.58" y="240" as="targetPoint" />
          </mxGeometry>
        </mxCell>
        <mxCell id="eR8I4bMejk7j6OaKvSnD-17" value="" style="endArrow=none;html=1;rounded=0;entryX=0.5;entryY=1;entryDx=0;entryDy=0;" parent="1" edge="1">
          <mxGeometry width="50" height="50" relative="1" as="geometry">
            <mxPoint x="552" y="576" as="sourcePoint" />
            <mxPoint x="551.5799999999999" y="240" as="targetPoint" />
          </mxGeometry>
        </mxCell>
        <mxCell id="eR8I4bMejk7j6OaKvSnD-18" value="Пользователь" style="shape=umlLifeline;perimeter=lifelinePerimeter;whiteSpace=wrap;html=1;container=1;dropTarget=0;collapsible=0;recursiveResize=0;outlineConnect=0;portConstraint=eastwest;newEdgeStyle={&quot;edgeStyle&quot;:&quot;elbowEdgeStyle&quot;,&quot;elbow&quot;:&quot;vertical&quot;,&quot;curved&quot;:0,&quot;rounded&quot;:0};participant=umlActor;" parent="1" vertex="1">
          <mxGeometry x="64" y="216" width="20" height="360" as="geometry" />
        </mxCell>
        <mxCell id="eR8I4bMejk7j6OaKvSnD-25" value="" style="html=1;points=[];perimeter=orthogonalPerimeter;outlineConnect=0;targetShapes=umlLifeline;portConstraint=eastwest;newEdgeStyle={&quot;edgeStyle&quot;:&quot;elbowEdgeStyle&quot;,&quot;elbow&quot;:&quot;vertical&quot;,&quot;curved&quot;:0,&quot;rounded&quot;:0};" parent="eR8I4bMejk7j6OaKvSnD-18" vertex="1">
          <mxGeometry x="5" y="48" width="10" height="48" as="geometry" />
        </mxCell>
        <mxCell id="eR8I4bMejk7j6OaKvSnD-27" value="" style="html=1;points=[];perimeter=orthogonalPerimeter;outlineConnect=0;targetShapes=umlLifeline;portConstraint=eastwest;newEdgeStyle={&quot;edgeStyle&quot;:&quot;elbowEdgeStyle&quot;,&quot;elbow&quot;:&quot;vertical&quot;,&quot;curved&quot;:0,&quot;rounded&quot;:0};" parent="eR8I4bMejk7j6OaKvSnD-18" vertex="1">
          <mxGeometry x="5" y="112" width="10" height="48" as="geometry" />
        </mxCell>
        <mxCell id="eR8I4bMejk7j6OaKvSnD-22" value="" style="html=1;points=[];perimeter=orthogonalPerimeter;outlineConnect=0;targetShapes=umlLifeline;portConstraint=eastwest;newEdgeStyle={&quot;edgeStyle&quot;:&quot;elbowEdgeStyle&quot;,&quot;elbow&quot;:&quot;vertical&quot;,&quot;curved&quot;:0,&quot;rounded&quot;:0};" parent="1" vertex="1">
          <mxGeometry x="187" y="288" width="10" height="40" as="geometry" />
        </mxCell>
        <mxCell id="eR8I4bMejk7j6OaKvSnD-23" value="dispatch" style="html=1;verticalAlign=bottom;endArrow=block;edgeStyle=elbowEdgeStyle;elbow=vertical;curved=0;rounded=0;" parent="1" source="eR8I4bMejk7j6OaKvSnD-25" target="eR8I4bMejk7j6OaKvSnD-22" edge="1">
          <mxGeometry relative="1" as="geometry">
            <mxPoint x="88" y="280" as="sourcePoint" />
            <Array as="points">
              <mxPoint x="160" y="288" />
              <mxPoint x="144" y="280" />
            </Array>
          </mxGeometry>
        </mxCell>
        <mxCell id="eR8I4bMejk7j6OaKvSnD-24" value="return" style="html=1;verticalAlign=bottom;endArrow=open;dashed=1;endSize=8;edgeStyle=elbowEdgeStyle;elbow=vertical;curved=0;rounded=0;" parent="1" source="eR8I4bMejk7j6OaKvSnD-22" edge="1">
          <mxGeometry relative="1" as="geometry">
            <mxPoint x="73" y="328" as="targetPoint" />
            <Array as="points">
              <mxPoint x="136" y="328" />
            </Array>
          </mxGeometry>
        </mxCell>
      </root>
    </mxGraphModel>
  </diagram>
</mxfile>
